<svg width="600" height="608" viewBox="0 0 600 608" fill="none" xmlns="http://www.w3.org/2000/svg">
<path opacity="0.15" d="M59.9355 604.554C84.6735 604.554 104.727 600.823 104.727 596.221C104.727 591.619 84.6735 587.887 59.9355 587.887C35.1977 587.887 15.1435 591.619 15.1435 596.221C15.1435 600.823 35.1977 604.554 59.9355 604.554Z" fill="#137ED9"/>
<path opacity="0.07" d="M320.356 128.196C344.944 128.196 368.524 137.963 385.91 155.35C403.297 172.735 413.064 196.316 413.064 220.904V262.363C413.064 263.062 412.787 263.732 412.292 264.227C411.798 264.721 411.127 265 410.429 265H230.219C229.519 265 228.85 264.721 228.355 264.227C227.861 263.732 227.582 263.062 227.582 262.363V220.915C227.582 196.327 237.35 172.746 254.737 155.359C272.124 137.974 295.704 128.206 320.292 128.206L320.356 128.196Z" fill="#137ED9"/>
<path d="M354.011 265.145L333.24 180.394H308.146L287.479 265.145H354.011Z" fill="#FFD943"/>
<path opacity="0.3" d="M337.949 265.145L327.542 180.394H313.646L303.656 265.145H337.949Z" fill="#FF9600"/>
<path d="M313.958 180.394C313.958 180.394 301.792 203.467 320.866 222.916C320.866 222.916 338.772 208.988 327.74 180.394H313.958Z" fill="#FF9600"/>
<path d="M315.917 180.394C315.917 180.394 308.146 197.207 321.126 208.79C321.126 208.79 332.376 199.78 325.804 180.394H315.917Z" fill="#FFD943"/>
<path d="M317.604 180.394C317.604 180.394 312.823 190.675 320.73 197.78C320.73 197.78 327.616 192.269 323.594 180.404L317.604 180.394Z" fill="#FF9600"/>
<path d="M272.969 250.75C276.064 250.75 278.573 248.239 278.573 245.144C278.573 242.05 276.064 239.54 272.969 239.54C269.873 239.54 267.365 242.05 267.365 245.144C267.365 248.239 269.873 250.75 272.969 250.75Z" fill="#FFD943"/>
<path d="M362.23 242.509C364.463 242.509 366.272 240.7 366.272 238.468C366.272 236.236 364.463 234.426 362.23 234.426C359.998 234.426 358.189 236.236 358.189 238.468C358.189 240.7 359.998 242.509 362.23 242.509Z" fill="#FFD943"/>
<path d="M280.594 256.405C281.802 256.405 282.781 255.426 282.781 254.218C282.781 253.009 281.802 252.03 280.594 252.03C279.385 252.03 278.407 253.009 278.407 254.218C278.407 255.426 279.385 256.405 280.594 256.405Z" fill="#FFD943"/>
<path d="M360.043 255.259C361.25 255.259 362.23 254.28 362.23 253.072C362.23 251.863 361.25 250.885 360.043 250.885C358.835 250.885 357.856 251.863 357.856 253.072C357.856 254.28 358.835 255.259 360.043 255.259Z" fill="#FFD943"/>
<path d="M376.802 254.302C378.005 254.302 378.98 253.326 378.98 252.124C378.98 250.921 378.005 249.947 376.802 249.947C375.601 249.947 374.626 250.921 374.626 252.124C374.626 253.326 375.601 254.302 376.802 254.302Z" fill="#FFD943"/>
<path d="M263.281 260.447C264.49 260.447 265.469 259.468 265.469 258.259C265.469 257.051 264.49 256.072 263.281 256.072C262.074 256.072 261.094 257.051 261.094 258.259C261.094 259.468 262.074 260.447 263.281 260.447Z" fill="#FFD943"/>
<path d="M291.823 115.206L278.094 129.56C276.67 131.048 275.692 132.908 275.272 134.926C271.788 153.244 272.086 172.08 276.146 190.279C276.215 190.584 276.37 190.862 276.593 191.08C276.816 191.297 277.098 191.444 277.404 191.504C277.711 191.564 278.028 191.533 278.317 191.416C278.606 191.298 278.854 191.099 279.031 190.842L300.438 159.238L291.823 115.206Z" fill="#137ED9"/>
<path d="M351.792 115.206L365.522 129.56C366.946 131.048 367.925 132.908 368.345 134.926C371.827 153.244 371.53 172.08 367.47 190.279C367.402 190.584 367.247 190.862 367.024 191.08C366.799 191.297 366.517 191.444 366.211 191.504C365.905 191.564 365.588 191.533 365.299 191.416C365.01 191.298 364.762 191.099 364.584 190.842L343.177 159.238L351.792 115.206Z" fill="#137ED9"/>
<path opacity="0.2" d="M291.823 115.206L278.094 129.56C276.67 131.048 275.692 132.908 275.272 134.926C271.788 153.244 272.086 172.08 276.146 190.279C276.215 190.584 276.37 190.862 276.593 191.08C276.816 191.297 277.098 191.444 277.404 191.504C277.711 191.564 278.028 191.533 278.317 191.416C278.606 191.298 278.854 191.099 279.031 190.842L300.438 159.238L291.823 115.206Z" fill="#000D44"/>
<path opacity="0.2" d="M351.792 115.206L365.522 129.56C366.946 131.048 367.925 132.908 368.345 134.926C371.827 153.244 371.53 172.08 367.47 190.279C367.402 190.584 367.247 190.862 367.024 191.08C366.799 191.297 366.517 191.444 366.211 191.504C365.905 191.564 365.588 191.533 365.299 191.416C365.01 191.298 364.762 191.099 364.584 190.842L343.177 159.238L351.792 115.206Z" fill="#000D44"/>
<path d="M305.105 175.82L307.406 181.123C307.406 181.123 318.511 183.988 337.303 181.123L338.292 175.915L305.105 175.82Z" fill="#137ED9"/>
<path d="M298.032 162.509L303.354 175.591C315.713 177.308 328.247 177.308 340.606 175.591L344.491 162.509H298.032Z" fill="#137ED9"/>
<path opacity="0.2" d="M298.032 162.509L303.354 175.591C315.713 177.308 328.247 177.308 340.606 175.591L344.491 162.509H298.032Z" fill="#000D44"/>
<path d="M320.833 19.2153L322.406 0.683901C322.406 0.596877 322.441 0.513416 322.502 0.45188C322.565 0.390344 322.648 0.355774 322.735 0.355774C322.822 0.355774 322.906 0.390344 322.967 0.45188C323.028 0.513416 323.063 0.596877 323.063 0.683901L324.563 19.2153H320.833Z" fill="#137ED9"/>
<path d="M346.71 164.873H296.407C291.412 146.396 289.242 127.27 289.969 108.143C291.823 84.997 296.365 66.945 301.333 53.4136C309.667 30.6217 319.282 20.6215 319.282 20.6215H325.938C325.938 20.6215 334.699 30.6217 342.449 53.3824C347.064 66.9241 351.334 84.9761 353.188 108.143C353.905 127.272 351.721 146.399 346.71 164.873Z" fill="#137ED9"/>
<path d="M342.418 53.3824C328.824 55.7393 314.927 55.7393 301.334 53.3824C309.667 30.5905 319.282 20.5905 319.282 20.5905H325.938C325.938 20.5905 334.668 30.6219 342.418 53.3824Z" fill="#137ED9"/>
<path opacity="0.2" d="M342.418 53.3824C328.824 55.7393 314.927 55.7393 301.334 53.3824C309.667 30.5905 319.282 20.5905 319.282 20.5905H325.938C325.938 20.5905 334.668 30.6219 342.418 53.3824Z" fill="#000D44"/>
<path d="M325.855 18.5175H319.542C319.382 18.5175 319.224 18.549 319.075 18.6102C318.929 18.6715 318.793 18.7612 318.68 18.8745C318.568 18.9876 318.478 19.122 318.416 19.2699C318.355 19.4177 318.324 19.5761 318.324 19.7362C318.324 19.8963 318.355 20.0548 318.416 20.2026C318.478 20.3505 318.568 20.4849 318.68 20.598C318.793 20.7112 318.929 20.8009 319.075 20.8621C319.224 20.9235 319.382 20.955 319.542 20.955H325.855C326.015 20.955 326.173 20.9235 326.322 20.8621C326.47 20.8009 326.604 20.7112 326.717 20.598C326.83 20.4849 326.92 20.3505 326.981 20.2026C327.042 20.0548 327.073 19.8963 327.073 19.7362C327.073 19.413 326.946 19.1029 326.717 18.8745C326.489 18.6459 326.178 18.5175 325.855 18.5175Z" fill="#137ED9"/>
<path d="M319.303 164.874V164.968H324.167V164.874C325.042 151.154 325.865 137.446 326.033 131.539C326.428 117.862 321.73 116.227 321.73 116.227C321.73 116.227 317.042 117.862 317.428 131.539C317.605 137.446 318.428 151.154 319.303 164.874Z" fill="#137ED9"/>
<path opacity="0.2" d="M319.303 164.874V164.968H324.167V164.874C325.042 151.154 325.865 137.446 326.033 131.539C326.428 117.862 321.73 116.227 321.73 116.227C321.73 116.227 317.042 117.862 317.428 131.539C317.605 137.446 318.428 151.154 319.303 164.874Z" fill="#000D44"/>
<path d="M321.178 96.7056C328.777 96.7056 334.938 90.5446 334.938 82.9453C334.938 75.3454 328.777 69.1847 321.178 69.1847C313.577 69.1847 307.417 75.3454 307.417 82.9453C307.417 90.5446 313.577 96.7056 321.178 96.7056Z" fill="white"/>
<path d="M321.178 93.4142C326.959 93.4142 331.646 88.7274 331.646 82.9453C331.646 77.1632 326.959 72.4763 321.178 72.4763C315.396 72.4763 310.709 77.1632 310.709 82.9453C310.709 88.7274 315.396 93.4142 321.178 93.4142Z" fill="white"/>
<path d="M326.016 89.6951C329.759 87.0164 330.622 81.8112 327.943 78.0689C325.265 74.3258 320.059 73.4633 316.316 76.1415C312.574 78.8202 311.712 84.0254 314.389 87.7686C317.069 91.5109 322.273 92.3738 326.016 89.6951Z" fill="white"/>
<path d="M424.408 343.678H524.377V338.812H424.408V343.678Z" fill="#137ED9"/>
<path d="M539.867 343.678L557.086 279.166C557.267 278.489 557.29 277.78 557.152 277.092C557.014 276.406 556.721 275.759 556.294 275.203C555.868 274.648 555.318 274.198 554.69 273.888C554.062 273.577 553.37 273.415 552.67 273.415H484.169C483.143 273.415 482.146 273.761 481.338 274.394C480.532 275.03 479.962 275.917 479.72 276.916L463.585 343.687L539.867 343.678Z" fill="#137ED9"/>
<path d="M468.263 338.364H537.992L554.221 276.655H484.138L468.263 338.364Z" fill="white"/>
<path opacity="0.15" d="M468.263 338.364H537.992L554.221 276.655H484.138L468.263 338.364Z" fill="#137ED9"/>
<path d="M538.44 338.989H467.461L483.648 276.041H555.035L538.44 338.989ZM469.033 337.739H537.481L553.388 277.322H484.638L469.033 337.739Z" fill="#137ED9"/>
<path d="M529.732 363.094H419.314V395.813H529.732V363.094Z" fill="white"/>
<path opacity="0.35" d="M529.732 363.094H419.314V395.813H529.732V363.094Z" fill="#137ED9"/>
<path d="M599.525 343.322H159.842V363.094H218.375V598.367H223.417H228.468V363.094H529.409V598.367H534.461H539.503V363.094H599.525V343.322Z" fill="white"/>
<path opacity="0.3" d="M599.525 343.322H159.842V363.094H218.375V598.367H223.417H228.468V363.094H529.409V598.367H534.461H539.503V363.094H599.525V343.322Z" fill="#137ED9"/>
<path d="M481.148 374.437C484.211 378.469 479.669 383.021 475.638 379.949C472.565 375.917 477.127 371.365 481.148 374.437Z" fill="white"/>
<path d="M41.2789 575.033C41.2789 575.033 41.0497 584.564 40.8623 586.992C40.6747 589.418 32.9455 589.596 32.0497 588.346C31.1539 587.096 30.6955 575.929 30.6955 575.929" fill="#F5B58F"/>
<path d="M29.9979 590.492C30.0898 592.723 30.3264 594.947 30.7062 597.149H39.6229L40.0605 595.658C41.6831 596.489 43.4524 596.995 45.2688 597.149H52.8001C58.3107 597.149 61.4357 596.45 61.5815 595.482C62.1648 591.43 55.5815 591.617 53.8731 591.617C48.9564 591.617 43.623 589.314 42.4146 586.814C41.5709 585.002 41.9459 584.544 40.925 584.887C40.5931 584.992 40.2861 585.163 40.0227 585.391C39.7594 585.618 39.5454 585.898 39.3937 586.211C38.9834 587.066 38.3137 587.772 37.4797 588.227C36.6459 588.68 35.6901 588.862 34.7479 588.742C33.615 588.587 32.5607 588.077 31.7375 587.284C31.1597 587.583 30.685 588.048 30.3748 588.62C30.0646 589.193 29.9333 589.844 29.9979 590.492Z" fill="#000D44"/>
<path d="M75.5191 575.033C75.5191 575.033 75.2899 584.564 75.1027 586.992C74.9146 589.418 67.1856 589.596 66.2898 588.346C65.3939 587.096 64.9355 575.929 64.9355 575.929" fill="#F5B58F"/>
<path d="M64.2375 590.492C64.3296 592.723 64.5661 594.947 64.946 597.149H73.8523L74.2898 595.658C75.9123 596.489 77.6816 596.995 79.498 597.149H87.0291C92.54 597.149 95.6652 596.45 95.8105 595.482C96.3939 591.43 89.8105 591.617 88.1026 591.617C83.1858 591.617 77.8524 589.314 76.6442 586.814C75.8 585.002 76.1752 584.544 75.1543 584.887C74.8225 584.992 74.5153 585.163 74.252 585.391C73.9886 585.618 73.7746 585.898 73.6231 586.211C73.2127 587.066 72.5431 587.772 71.7091 588.227C70.8752 588.68 69.9194 588.862 68.9773 588.742C67.8444 588.587 66.79 588.077 65.9667 587.284C65.3908 587.585 64.9184 588.05 64.6101 588.623C64.302 589.194 64.1721 589.846 64.2375 590.492Z" fill="#000D44"/>
<path d="M89.3527 414.553C88.8844 394.266 86.4418 374.074 82.0605 354.26C81.7691 353.666 72.1334 355.021 71.0292 355.104L59.0812 356.021C57.6422 356.066 56.2081 356.213 54.7894 356.459C54.7269 355.416 54.6853 354.427 54.6228 353.417L37.0288 355.073L28.2579 355.896C25.6642 356.136 21.2683 355.687 18.8828 356.76C15.4349 358.355 13.8932 365.948 13.1224 369.532C12.0659 374.738 11.7156 380.064 12.0807 385.364C12.664 395.261 15.1223 404.938 17.1641 414.647C21.4426 434.791 23.8005 455.297 24.2059 475.886C24.4454 489.773 23.737 503.647 23.9558 517.554C24.31 539.429 26.9767 561.137 29.7683 582.804C33.8909 583.6 38.1388 583.472 42.206 582.43C47.6956 533.471 53.1853 484.261 55.1331 435.053C62.3416 483.824 53.8207 534.45 64.5084 582.659C68.5827 583.613 72.8319 583.523 76.8627 582.397C79.6335 544.294 85.1961 506.438 87.9354 468.334C89.325 450.443 89.7976 432.492 89.3527 414.553Z" fill="#1B255E"/>
<path fill-rule="evenodd" clip-rule="evenodd" d="M133.468 226.196C133.468 225.373 131.384 225.707 130.228 225.624C130.465 225.252 130.619 224.832 130.676 224.395C130.734 223.958 130.694 223.513 130.561 223.092C127.572 222.749 123.364 223.717 120.144 224.082C118.384 224.456 112.936 226.31 111.019 226.895C109.132 227.158 107.416 228.134 106.228 229.624C105.369 230.548 104.562 231.517 103.811 232.53V232.592L103.467 233.062C103.392 233.186 103.329 233.32 103.279 233.456C102.962 234.048 102.75 234.689 102.655 235.352C101.806 238.589 100.787 241.777 99.6021 244.904C92.071 250.937 85.2897 260.531 66.7167 264.802C62.6541 265.728 50.4873 272.812 52.2583 279.384C54.0291 285.958 52.4457 292.687 65.0396 289.374C82.8418 284.666 100.623 259.458 108.27 250.572C115.79 250.082 115.363 245.561 122.342 241.51C125.196 239.854 127.967 240.468 128.718 237.342C129.155 235.582 124.624 236.812 121.644 238.176C114.738 241.217 121.259 237.76 124.072 236.238C125.238 235.614 129.28 234.27 130.385 233.624C131.185 233.244 131.83 232.598 132.21 231.797C132.589 230.996 132.68 230.088 132.467 229.228L131.155 229.394C131.818 229.157 132.394 228.725 132.806 228.154C133.219 227.582 133.45 226.901 133.468 226.196Z" fill="#EFAB89"/>
<path d="M31.3416 229.499C31.3416 229.499 34.1541 219.958 32.9248 212.915C31.6958 205.873 27.4665 193.196 29.0499 183.696C30.6332 174.197 42.5917 166.268 55.2793 167.498C67.9669 168.727 71.6545 180.874 73.7587 187.915C75.863 194.957 75.5192 205.697 74.9881 211.499C74.4566 217.301 71.2898 221.915 69.1753 223.114C67.0606 224.311 59.1127 222.718 57.7168 224.238C56.321 225.758 55.2688 234.728 55.2688 234.728" fill="#F5B58F"/>
<path d="M25.3518 237.03C25.3518 237.03 26.0602 231.468 28.1642 229.499C30.2684 227.53 44.3624 227.53 48.5812 228.061C52.8 228.593 63.2272 233.447 64.6021 234.478C65.9772 235.51 63.2585 240.853 63.2585 240.853L25.3518 237.03Z" fill="#137ED9"/>
<path opacity="0.2" d="M25.3518 237.03C25.3518 237.03 26.0602 231.468 28.1642 229.499C30.2684 227.53 44.3624 227.53 48.5812 228.061C52.8 228.593 63.2272 233.447 64.6021 234.478C65.9772 235.51 63.2585 240.853 63.2585 240.853L25.3518 237.03Z" fill="#000D44"/>
<path d="M31.8624 217.499C31.8624 217.499 49.4666 218.999 52.8106 217.499C56.1542 215.999 60.998 212.748 61.4355 206.759C61.8731 200.77 60.6439 198.925 62.9356 195.582C65.2273 192.238 67.2481 193.384 67.6022 196.55C67.9565 199.717 68.0918 205.446 68.9252 205.862C70.0502 206.436 71.3836 202.404 70.946 196.29C70.571 190.988 69.9773 186.914 68.394 183.352V183.248C67.8515 182.082 67.6441 180.788 67.7948 179.513C67.9457 178.236 68.4489 177.026 69.2481 176.018C69.7794 175.313 70.2731 174.58 70.7273 173.821C74.2482 168.322 72.3107 159.749 62.9772 159.779C48.748 159.832 33.7374 162.28 29.9248 170.915C28.9284 172.968 27.5291 174.799 25.8102 176.3C24.4664 177.56 23.1852 180.113 23.1018 185.218C22.9248 196.217 29.9665 209.509 30.4978 212.946C31.029 216.384 30.1019 216.707 31.8624 217.499Z" fill="#000D44"/>
<path d="M80.9567 346.802C81.1506 348.12 81.4151 349.428 81.7484 350.718C82.4667 353.489 83.5297 356.177 84.0091 359C84.1454 359.46 84.1746 359.946 84.093 360.42C84.0121 360.893 83.8225 361.34 83.5401 361.729C83.1873 361.993 82.7851 362.184 82.3574 362.29C81.9296 362.395 81.4855 362.413 81.0503 362.344C64.196 361.832 47.2481 358.333 30.6125 361.062C25.5915 361.885 20.6852 363.26 15.6852 364.187C15.1142 364.356 14.5026 364.319 13.956 364.084C12.9143 363.49 13.1852 362 13.5185 360.833C15.8519 352.792 14.9143 344.166 13.5914 335.938C9.68509 311.521 2.51837 287.614 0.528766 262.968C0.0912624 257.603 -0.0441543 251.957 2.32045 247.114C6.93508 237.665 18.0185 235.332 27.5186 234.936C39.9041 234.436 52.5188 234.353 64.5711 237.853C73.0086 240.312 81.4255 245.02 85.2068 252.947C87.6023 257.968 87.8735 263.718 87.7903 269.269C87.5087 289.124 83.3214 308.687 81.1859 328.427C80.5087 334.52 80.1027 340.76 80.9567 346.802Z" fill="#137ED9"/>
<path d="M153.632 200.989L133.721 236.675L137.569 238.822L157.481 203.136L153.632 200.989Z" fill="#137ED9"/>
<path d="M172.97 211.224L153.053 246.906L156.9 249.054L176.818 213.372L172.97 211.224Z" fill="#137ED9"/>
<path fill-rule="evenodd" clip-rule="evenodd" d="M109.27 248.134C123.332 252.713 136.45 259.799 147.989 269.051C149.812 270.509 152.363 270.092 154.332 268.832L170.821 258.415C171.283 258.127 171.661 257.724 171.918 257.245C172.176 256.768 172.304 256.23 172.29 255.686C172.29 255.613 172.29 255.53 172.29 255.457L172.124 248.603L168.041 251.582L132.008 232.04C131.032 231.492 129.923 231.222 128.803 231.259C127.684 231.296 126.595 231.638 125.654 232.249L111.748 241.009L107.467 238.51L107.623 245.134C107.623 245.238 107.623 245.342 107.623 245.456C107.637 246.008 107.796 246.547 108.085 247.018C108.374 247.488 108.783 247.873 109.27 248.134Z" fill="#137ED9"/>
<path fill-rule="evenodd" clip-rule="evenodd" d="M109.155 241.343C122.812 246.827 135.802 253.843 147.875 262.259C148.834 262.858 149.947 263.158 151.078 263.12C152.207 263.083 153.3 262.711 154.218 262.051L170.707 251.634C171.178 251.346 171.563 250.938 171.824 250.452C172.086 249.967 172.213 249.42 172.195 248.869C172.177 248.318 172.014 247.781 171.721 247.314C171.43 246.846 171.018 246.464 170.531 246.208L131.894 225.248C130.916 224.701 129.809 224.431 128.688 224.467C127.568 224.504 126.48 224.846 125.54 225.457L108.967 235.874C108.497 236.162 108.112 236.57 107.851 237.055C107.59 237.541 107.461 238.087 107.479 238.639C107.497 239.19 107.661 239.726 107.953 240.194C108.246 240.661 108.656 241.044 109.145 241.301L109.155 241.343Z" fill="#137ED9"/>
<path opacity="0.2" fill-rule="evenodd" clip-rule="evenodd" d="M109.155 241.343C122.812 246.827 135.802 253.843 147.875 262.259C148.834 262.858 149.947 263.158 151.078 263.12C152.207 263.083 153.3 262.711 154.218 262.051L170.707 251.634C171.178 251.346 171.563 250.938 171.824 250.452C172.086 249.967 172.213 249.42 172.195 248.869C172.177 248.318 172.014 247.781 171.721 247.314C171.43 246.846 171.018 246.464 170.531 246.208L131.894 225.248C130.916 224.701 129.809 224.431 128.688 224.467C127.568 224.504 126.48 224.846 125.54 225.457L108.967 235.874C108.497 236.162 108.112 236.57 107.851 237.055C107.59 237.541 107.461 238.087 107.479 238.639C107.497 239.19 107.661 239.726 107.953 240.194C108.246 240.661 108.656 241.044 109.145 241.301L109.155 241.343Z" fill="#000D44"/>
<path fill-rule="evenodd" clip-rule="evenodd" d="M111.353 240.092C124.066 245.297 136.183 251.848 147.499 259.634C148.361 260.17 149.363 260.437 150.377 260.404C151.391 260.371 152.371 260.038 153.197 259.447L168.02 250.072C168.438 249.81 168.781 249.443 169.012 249.007C169.244 248.572 169.358 248.082 169.343 247.59C169.327 247.096 169.182 246.616 168.923 246.196C168.664 245.776 168.298 245.431 167.864 245.197L131.79 225.624C130.913 225.132 129.917 224.89 128.91 224.922C127.904 224.956 126.926 225.262 126.082 225.811L111.186 235.187C110.769 235.45 110.427 235.817 110.196 236.254C109.965 236.689 109.852 237.179 109.869 237.672C109.886 238.165 110.032 238.645 110.292 239.064C110.552 239.484 110.918 239.827 111.353 240.061V240.092Z" fill="white"/>
<path opacity="0.15" fill-rule="evenodd" clip-rule="evenodd" d="M111.353 240.092C124.066 245.297 136.183 251.848 147.499 259.634C148.361 260.17 149.363 260.437 150.377 260.404C151.391 260.371 152.371 260.038 153.197 259.447L168.02 250.072C168.438 249.81 168.781 249.443 169.012 249.007C169.244 248.572 169.358 248.082 169.343 247.59C169.327 247.096 169.182 246.616 168.923 246.196C168.664 245.776 168.298 245.431 167.864 245.197L131.79 225.624C130.913 225.132 129.917 224.89 128.91 224.922C127.904 224.956 126.926 225.262 126.082 225.811L111.186 235.187C110.769 235.45 110.427 235.817 110.196 236.254C109.965 236.689 109.852 237.179 109.869 237.672C109.886 238.165 110.032 238.645 110.292 239.064C110.552 239.484 110.918 239.827 111.353 240.061V240.092Z" fill="#137ED9"/>
<path d="M119.846 241.5C122.756 241.43 125.081 239.905 125.036 238.093C124.993 236.281 122.598 234.87 119.688 234.94C116.778 235.01 114.454 236.536 114.497 238.348C114.542 240.158 116.936 241.571 119.846 241.5Z" fill="#137ED9"/>
<path fill-rule="evenodd" clip-rule="evenodd" d="M119.686 231.113C120.092 231.113 120.426 231.322 120.426 231.604L120.551 236.812C120.551 237.092 120.238 237.322 119.832 237.332C119.425 237.332 119.092 237.124 119.092 236.843L118.967 231.635C118.905 231.395 119.228 231.113 119.686 231.113Z" fill="#137ED9"/>
<path opacity="0.2" fill-rule="evenodd" clip-rule="evenodd" d="M119.686 231.113C120.092 231.113 120.426 231.322 120.426 231.604L120.551 236.812C120.551 237.092 120.238 237.322 119.832 237.332C119.425 237.332 119.092 237.124 119.092 236.843L118.967 231.635C118.905 231.395 119.228 231.113 119.686 231.113Z" fill="#000D44"/>
<path fill-rule="evenodd" clip-rule="evenodd" d="M119.686 232.072C120.17 232.044 120.649 232.175 121.051 232.446C121.205 232.585 121.298 232.781 121.31 232.988C121.31 233.582 120.571 234.03 119.624 234.092C119.14 234.12 118.661 233.988 118.259 233.718C118.104 233.579 118.01 233.383 117.998 233.176C118.009 232.592 118.769 232.103 119.686 232.072Z" fill="#137ED9"/>
<path d="M119.691 233.339C120.905 233.31 121.865 232.303 121.836 231.089C121.807 229.876 120.799 228.916 119.586 228.944C118.372 228.973 117.412 229.981 117.441 231.194C117.47 232.409 118.478 233.369 119.691 233.339Z" fill="#137ED9"/>
<path opacity="0.2" d="M119.691 233.339C120.905 233.31 121.865 232.303 121.836 231.089C121.807 229.876 120.799 228.916 119.586 228.944C118.372 228.973 117.412 229.981 117.441 231.194C117.47 232.409 118.478 233.369 119.691 233.339Z" fill="#000D44"/>
<path d="M126.418 243.236C127.792 243.204 128.89 242.486 128.869 241.636C128.849 240.785 127.717 240.121 126.343 240.155C124.969 240.187 123.871 240.904 123.892 241.756C123.912 242.606 125.042 243.27 126.418 243.236Z" fill="#137ED9"/>
<path fill-rule="evenodd" clip-rule="evenodd" d="M158.874 243.301L137.749 231.707L126.978 238.176L148.104 249.77L158.874 243.301Z" fill="#137ED9"/>
<path opacity="0.85" fill-rule="evenodd" clip-rule="evenodd" d="M156.833 243.228L137.812 232.801L128.884 238.176L147.905 248.592L156.833 243.228Z" fill="white"/>
<path d="M149.069 258.022C151.979 257.951 154.303 256.43 154.26 254.624C154.217 252.818 151.822 251.411 148.912 251.482C146.002 251.552 143.677 253.073 143.722 254.879C143.765 256.685 146.159 258.091 149.069 258.022Z" fill="#137ED9"/>
<path fill-rule="evenodd" clip-rule="evenodd" d="M148.853 247.686C149.26 247.686 149.592 247.895 149.592 248.176L149.718 253.385C149.718 253.666 149.405 253.895 148.999 253.904C148.592 253.904 148.259 253.697 148.259 253.416L148.134 248.208C148.123 247.937 148.446 247.697 148.853 247.686Z" fill="#137ED9"/>
<path opacity="0.2" fill-rule="evenodd" clip-rule="evenodd" d="M148.853 247.686C149.26 247.686 149.592 247.895 149.592 248.176L149.718 253.385C149.718 253.666 149.405 253.895 148.999 253.904C148.592 253.904 148.259 253.697 148.259 253.416L148.134 248.208C148.123 247.937 148.446 247.697 148.853 247.686Z" fill="#000D44"/>
<path fill-rule="evenodd" clip-rule="evenodd" d="M148.937 248.614C149.42 248.586 149.899 248.718 150.301 248.989C150.456 249.128 150.55 249.322 150.562 249.53C150.562 250.123 149.822 250.572 148.864 250.634C148.38 250.662 147.9 250.53 147.499 250.259C147.344 250.12 147.251 249.925 147.239 249.718C147.228 249.134 147.989 248.634 148.937 248.614Z" fill="#137ED9"/>
<path d="M148.914 249.87C150.128 249.841 151.088 248.833 151.06 247.62C151.03 246.407 150.023 245.447 148.808 245.476C147.595 245.504 146.635 246.512 146.664 247.727C146.694 248.94 147.701 249.9 148.914 249.87Z" fill="#137ED9"/>
<path opacity="0.2" d="M148.914 249.87C150.128 249.841 151.088 248.833 151.06 247.62C151.03 246.407 150.023 245.447 148.808 245.476C147.595 245.504 146.635 246.512 146.664 247.727C146.694 248.94 147.701 249.9 148.914 249.87Z" fill="#000D44"/>
<path d="M131.66 246.026C133.036 245.993 134.132 245.276 134.112 244.426C134.092 243.574 132.96 242.911 131.586 242.944C130.211 242.977 129.114 243.694 129.134 244.546C129.155 245.396 130.285 246.06 131.66 246.026Z" fill="#137ED9"/>
<path d="M136.903 248.816C138.277 248.783 139.375 248.066 139.355 247.216C139.334 246.364 138.203 245.7 136.829 245.734C135.454 245.767 134.357 246.484 134.377 247.334C134.398 248.185 135.528 248.85 136.903 248.816Z" fill="#137ED9"/>
<path d="M142.135 251.596C143.509 251.562 144.607 250.846 144.587 249.994C144.566 249.143 143.435 248.48 142.061 248.513C140.686 248.546 139.589 249.263 139.609 250.114C139.63 250.966 140.76 251.628 142.135 251.596Z" fill="#137ED9"/>
<path fill-rule="evenodd" clip-rule="evenodd" d="M131.645 230.968L129.624 232.156C129.571 232.187 129.512 232.204 129.451 232.204C129.391 232.204 129.332 232.187 129.281 232.156L128.363 231.644C128.338 231.63 128.317 231.608 128.302 231.583C128.287 231.557 128.28 231.528 128.28 231.499C128.28 231.469 128.287 231.44 128.302 231.414C128.317 231.389 128.338 231.367 128.363 231.353L130.385 230.134C130.436 230.102 130.495 230.086 130.556 230.086C130.616 230.086 130.675 230.102 130.728 230.134L131.645 230.654C131.67 230.67 131.693 230.69 131.707 230.716C131.723 230.742 131.73 230.771 131.73 230.801C131.73 230.831 131.723 230.86 131.707 230.885C131.693 230.911 131.67 230.932 131.645 230.947V230.968Z" fill="#137ED9"/>
<path fill-rule="evenodd" clip-rule="evenodd" d="M128.687 232.739L126.665 233.957C126.613 233.988 126.554 234.005 126.493 234.005C126.433 234.005 126.374 233.988 126.322 233.957L125.416 233.447C125.389 233.432 125.368 233.411 125.353 233.386C125.338 233.359 125.329 233.33 125.329 233.302C125.329 233.272 125.338 233.242 125.353 233.216C125.368 233.19 125.389 233.17 125.416 233.155L127.436 231.936C127.488 231.905 127.548 231.888 127.608 231.888C127.669 231.888 127.728 231.905 127.78 231.936L128.696 232.457C128.723 232.471 128.744 232.493 128.76 232.518C128.774 232.544 128.783 232.573 128.783 232.603C128.783 232.633 128.774 232.662 128.76 232.687C128.744 232.714 128.723 232.734 128.696 232.75L128.687 232.739Z" fill="#137ED9"/>
<path fill-rule="evenodd" clip-rule="evenodd" d="M162.395 247.78L160.374 248.999C160.322 249.03 160.264 249.047 160.202 249.047C160.141 249.047 160.082 249.03 160.03 248.999L159.114 248.489C159.088 248.474 159.066 248.453 159.052 248.426C159.036 248.401 159.028 248.372 159.028 248.342C159.028 248.314 159.036 248.284 159.052 248.257C159.066 248.232 159.088 248.212 159.114 248.197L161.134 246.978C161.186 246.947 161.246 246.93 161.306 246.93C161.368 246.93 161.426 246.947 161.478 246.978L162.395 247.499C162.421 247.513 162.443 247.534 162.457 247.56C162.473 247.585 162.481 247.615 162.481 247.645C162.481 247.674 162.473 247.703 162.457 247.729C162.443 247.756 162.421 247.776 162.395 247.79V247.78Z" fill="#137ED9"/>
<path fill-rule="evenodd" clip-rule="evenodd" d="M159.457 249.52L157.436 250.739C157.385 250.77 157.325 250.787 157.265 250.787C157.204 250.787 157.145 250.77 157.093 250.739L156.176 250.228C156.15 250.213 156.128 250.193 156.113 250.168C156.098 250.141 156.09 250.112 156.09 250.082C156.09 250.052 156.098 250.024 156.113 249.997C156.128 249.972 156.15 249.95 156.176 249.936L158.228 248.718C158.28 248.686 158.339 248.67 158.4 248.67C158.461 248.67 158.52 248.686 158.572 248.718L159.488 249.239C159.514 249.253 159.535 249.274 159.55 249.3C159.565 249.326 159.572 249.355 159.572 249.384C159.568 249.415 159.554 249.444 159.534 249.468C159.514 249.492 159.487 249.51 159.457 249.52Z" fill="#137ED9"/>
<path fill-rule="evenodd" clip-rule="evenodd" d="M169.946 253.781L168.853 255.072L172.062 250.457C173.562 248.302 170.551 247.405 168.875 249.415L164.854 254.218L168.103 248.134C169.333 245.821 166.249 245.728 164.843 247.937L160.312 254.456C156.426 257.656 153.842 259.427 150.936 259.259C150.571 257.903 150.427 256.496 150.51 255.092C151.708 250.009 151.165 248.509 148.946 247.968C148.572 250.79 147.052 252.083 146.687 254.896C146.405 257.072 145.708 258.301 145.874 260.498C146.197 264.541 146.707 266.656 147.322 267.602C147.384 267.895 147.457 268.187 147.541 268.499C140.467 274.343 134.238 282.457 116.655 286.51C115.358 286.868 114.107 287.376 112.926 288.02C104.384 283.238 98.7273 268.645 84.9252 256.822C77.9775 234.593 61.196 240.436 58.0814 244.238C53.373 249.947 46.727 263.498 61.5397 278.718C76.4562 299.135 91.54 302.395 105.54 309.968C107.071 311.386 109.78 311.791 115.009 310.416C132.322 305.833 147.707 283.447 155.155 274.812C158.687 274.009 160.853 272.874 165.572 270.02C166.349 269.569 166.987 268.914 167.416 268.124C167.586 268.014 167.734 267.872 167.854 267.707L171.061 263.666L172.717 258.842C173.239 257.344 172.781 256.541 171.968 256.592L173.333 254.656C174.895 252.53 171.635 251.77 169.946 253.781Z" fill="#EFAB89"/>
<path fill-rule="evenodd" clip-rule="evenodd" d="M64.5502 284.156C80.3624 280.832 90.8419 270.499 86.6651 256.259C79.2277 239.592 64.5606 235.312 56.9563 242.009C43.7687 253.634 49.7375 268.937 64.5502 284.156Z" fill="#137ED9"/>
<path opacity="0.15" d="M556.816 598.304H204.728V607.68H556.816V598.304Z" fill="#137ED9"/>
</svg>
