<svg width="308" height="87" viewBox="0 0 308 87" fill="none" xmlns="http://www.w3.org/2000/svg">
<path d="M99.0772 41.8243V53.2465C98.4177 53.9105 97.6689 54.4795 96.8525 54.9371C96.0564 55.3821 95.2133 55.7373 94.3387 55.996C93.447 56.2576 92.5328 56.4353 91.608 56.5271C90.6569 56.6242 89.7015 56.6724 88.7454 56.6716C86.8847 56.6863 85.0407 56.3184 83.3281 55.5907C81.676 54.8864 80.171 53.8781 78.8912 52.6181C77.619 51.3522 76.6023 49.8533 75.8966 48.2032C75.1619 46.4901 74.7896 44.6435 74.8031 42.7796C74.789 40.3127 75.4403 37.8876 76.6885 35.7597C77.2998 34.7283 78.0388 33.7781 78.8881 32.9317C80.5976 31.2296 82.7198 30.0007 85.047 29.3652C86.2526 29.033 87.498 28.867 88.7486 28.8718C89.7535 28.8703 90.7553 28.9852 91.7337 29.2143C92.7094 29.4412 93.6576 29.773 94.5618 30.2042C95.4713 30.6453 96.3372 31.1714 97.1479 31.7753C97.9766 32.3888 98.7475 33.0767 99.4512 33.8304L98.3074 34.9899C97.9835 35.3448 97.5866 35.6255 97.144 35.8126C96.7014 35.9998 96.2236 36.0889 95.7433 36.0739C95.0485 36.0797 94.3694 35.8676 93.8014 35.4675C93.0773 34.9698 92.2858 34.5783 91.4509 34.3048C90.5823 34.0233 89.6743 33.8822 88.7611 33.8869C87.5729 33.8825 86.3965 34.1221 85.3046 34.5908C83.1553 35.4886 81.4346 37.1801 80.5001 39.3136C80.0236 40.4034 79.7806 41.5808 79.7868 42.7701C79.7774 43.98 80.0304 45.1774 80.5284 46.2801C81.2621 47.8947 82.4453 49.2638 83.9364 50.2239C85.4276 51.184 87.1636 51.6944 88.9371 51.6942C89.542 51.6799 90.1454 51.6284 90.7439 51.5403C91.309 51.4554 91.8684 51.3357 92.4187 51.182C92.994 51.0232 93.5449 50.7864 94.0559 50.4782V46.6477L92.4847 46.6194C92.0131 46.6214 91.5466 46.5206 91.1178 46.3241C90.6992 46.1195 90.3609 45.7811 90.1563 45.3625C89.8784 44.7324 89.7545 44.0452 89.7949 43.3578V41.8337L99.0772 41.8243Z" fill="#070707"/>
<path d="M112.259 56.4171H107.275V29.1578H117.51C118.746 29.1391 119.971 29.3923 121.098 29.8994C122.135 30.3689 123.068 31.0384 123.845 31.8696C124.603 32.6792 125.203 33.6234 125.614 34.6536C126.333 36.4191 126.444 38.3739 125.928 40.2092C125.717 40.9666 125.4 41.6902 124.985 42.3585C124.102 43.7712 122.843 44.9103 121.35 45.6485C122.682 47.4647 124.007 49.2632 125.325 51.0438C126.642 52.8244 127.975 54.6155 129.322 56.4171H125.406C125.085 56.4095 124.767 56.3512 124.464 56.2443C124.07 56.1148 123.696 55.933 123.351 55.7038C122.923 55.4271 122.521 55.1116 122.151 54.7611C121.701 54.3203 121.297 53.8349 120.944 53.3125L115.98 46.6163H112.259V56.4171ZM117.664 41.5981C118.14 41.5953 118.61 41.488 119.04 41.2839C119.472 41.0884 119.86 40.8097 120.184 40.4637C120.511 40.1179 120.772 39.7154 120.954 39.2759C121.142 38.8349 121.239 38.3603 121.24 37.8808C121.24 37.393 121.143 36.91 120.954 36.4605C120.77 36.0218 120.509 35.6195 120.184 35.2727C119.859 34.9286 119.471 34.6511 119.04 34.4557C118.61 34.25 118.14 34.1427 117.664 34.1415H112.259V41.5792L117.664 41.5981Z" fill="#070707"/>
<path d="M142.469 29.1577H146.978L158.887 56.417H155.786C155.1 56.423 154.428 56.2322 153.847 55.8671C153.266 55.5027 152.808 54.9716 152.534 54.3431L150.915 50.6541H138.532L136.935 54.3431C136.805 54.6502 136.624 54.9337 136.401 55.1821C136.173 55.4349 135.911 55.6548 135.622 55.8357C135.33 56.0222 135.012 56.1661 134.679 56.2631C134.35 56.3653 134.006 56.4172 133.661 56.417H130.56L142.469 29.1577ZM140.738 45.6484H148.71L145.153 37.3937C145.001 37.0591 144.889 36.7079 144.819 36.3473C144.763 36.0331 144.725 35.788 144.713 35.6246C144.689 35.8706 144.652 36.1151 144.599 36.3567C144.529 36.7118 144.424 37.0591 144.285 37.3937L140.738 45.6484Z" fill="#070707"/>
<path d="M173.197 56.417H168.189V44.8691C168.195 44.4911 168.104 44.1177 167.925 43.7851C167.71 43.4111 167.475 43.0492 167.221 42.701L157.213 29.1577H161.037C161.804 29.1413 162.564 29.3106 163.252 29.6511C163.896 29.9824 164.443 30.4737 164.842 31.0777L170.225 38.3646C170.383 38.5758 170.5 38.8145 170.57 39.0685C170.633 39.3073 170.668 39.4613 170.68 39.5241C170.704 39.3728 170.74 39.2236 170.787 39.0779C170.863 38.8182 170.989 38.5759 171.158 38.3646L176.522 31.0965C176.912 30.478 177.461 29.9755 178.112 29.6417C178.802 29.3073 179.561 29.1414 180.327 29.1577H184.195L174.162 42.7198C174.011 42.9241 173.876 43.1095 173.766 43.2823C173.653 43.4442 173.548 43.612 173.452 43.7851C173.365 43.948 173.298 44.1211 173.254 44.3004C173.207 44.4863 173.185 44.6775 173.188 44.8691L173.197 56.417Z" fill="#070707"/>
<path d="M211.618 43.3295V53.8278C211.006 54.397 210.315 54.8753 209.566 55.2482C208.8 55.6286 207.997 55.9287 207.169 56.1437C206.3 56.3665 205.416 56.5189 204.523 56.5993C203.612 56.681 202.685 56.7219 201.748 56.7219C199.884 56.7352 198.037 56.3618 196.325 55.6252C194.671 54.9207 193.168 53.9076 191.894 52.6401C190.624 51.3717 189.611 49.8706 188.909 48.2189C188.187 46.499 187.815 44.6526 187.815 42.7874C187.815 40.9223 188.187 39.0759 188.909 37.356C189.613 35.6989 190.631 34.1935 191.907 32.9222C193.181 31.6556 194.685 30.6426 196.337 29.9371C199.769 28.4989 203.631 28.4785 207.078 29.8805C208.7 30.5587 210.181 31.5362 211.442 32.762L211.254 32.9348C211.032 33.1602 210.771 33.3433 210.484 33.4753C210.192 33.5985 209.877 33.6595 209.56 33.6544C209.124 33.6574 208.698 33.5245 208.341 33.2742C207.398 32.6268 206.367 32.1179 205.28 31.7627C204.143 31.3968 202.955 31.2143 201.761 31.2223C200.723 31.2181 199.689 31.3556 198.688 31.6308C197.72 31.8942 196.793 32.2875 195.932 32.7997C195.079 33.3033 194.292 33.9102 193.588 34.6065C192.886 35.3044 192.278 36.0915 191.781 36.9475C191.276 37.8174 190.883 38.7475 190.612 39.7159C190.331 40.7148 190.19 41.7481 190.194 42.7859C190.19 43.8253 190.334 44.8601 190.621 45.859C191.183 47.7978 192.239 49.5574 193.685 50.9652C194.402 51.6649 195.203 52.2728 196.07 52.7752C196.952 53.2854 197.896 53.6783 198.879 53.9441C199.886 54.2187 200.925 54.3561 201.968 54.3526C203.261 54.3569 204.548 54.1813 205.792 53.831C207.028 53.4779 208.207 52.9487 209.293 52.2598V45.705H206.876C206.566 45.7105 206.258 45.6516 205.971 45.5321C205.684 45.4126 205.426 45.235 205.211 45.0106C205.014 44.7977 204.859 44.5493 204.755 44.2785C204.648 43.9986 204.594 43.7014 204.595 43.4018V43.3263L211.618 43.3295Z" fill="#070707"/>
<path d="M222.198 56.417H219.819V29.1577H229.369C230.395 29.1495 231.413 29.3527 232.357 29.7548C233.261 30.1416 234.084 30.6972 234.78 31.3919C235.477 32.0876 236.033 32.9113 236.417 33.8177C236.819 34.7546 237.023 35.7645 237.017 36.7841C237.018 37.7121 236.857 38.6332 236.54 39.5053C236.235 40.3584 235.792 41.1556 235.229 41.8651C234.671 42.5608 233.987 43.145 233.212 43.5871C232.423 44.0378 231.548 44.3193 230.645 44.4135L239.66 56.417H238.538C237.234 56.417 236.266 55.9331 235.647 54.9747L227.713 44.4135H222.198V56.417ZM222.198 31.5333V42.0348H229.369C230.071 42.0393 230.768 41.9003 231.414 41.6263C232.04 41.3623 232.608 40.9804 233.089 40.5014C233.568 40.0205 233.952 39.4533 234.221 38.8297C234.501 38.1844 234.643 37.4876 234.638 36.7841C234.644 36.0845 234.501 35.3918 234.221 34.751C233.677 33.4935 232.673 32.4917 231.414 31.9512C230.769 31.6712 230.072 31.5289 229.369 31.5333H222.198Z" fill="#070707"/>
<path d="M248.373 56.417H245.995V29.1577H248.373V56.417Z" fill="#070707"/>
<path d="M257.561 56.4171V29.1578H267.588C270.005 29.1482 272.38 29.792 274.461 31.0212C276.482 32.2141 278.168 33.8994 279.363 35.92C280.589 38.0043 281.235 40.3786 281.235 42.7969C281.235 45.2151 280.589 47.5894 279.363 49.6737C278.767 50.6791 278.048 51.606 277.223 52.4327C275.556 54.1002 273.485 55.3055 271.211 55.93C270.032 56.2584 268.813 56.4223 267.588 56.4171H257.561ZM267.588 54.0384C269.1 54.0506 270.598 53.7499 271.988 53.1554C273.321 52.5855 274.534 51.7689 275.564 50.7484C276.593 49.7239 277.413 48.5095 277.98 47.1725C278.563 45.7873 278.863 44.2996 278.863 42.7969C278.863 41.2941 278.563 39.8064 277.98 38.4212C277.412 37.0822 276.591 35.865 275.564 34.8359C274.535 33.8115 273.322 32.9915 271.988 32.4195C270.598 31.8239 269.1 31.5222 267.588 31.5334H259.94V54.0384H267.588Z" fill="#070707"/>
<path d="M298.521 32.7306C298.229 32.5295 297.971 32.3378 297.751 32.1618C297.292 31.7926 296.755 31.5326 296.18 31.4014C295.767 31.3169 295.345 31.279 294.923 31.2883C294.209 31.2842 293.5 31.4099 292.83 31.659C292.198 31.892 291.61 32.2298 291.09 32.6583C290.6 33.0627 290.197 33.5605 289.902 34.1226C289.613 34.6674 289.463 35.2751 289.465 35.8917C289.446 36.4874 289.54 37.0813 289.742 37.6419C289.944 38.1202 290.269 38.5364 290.684 38.8486C291.213 39.2512 291.796 39.578 292.416 39.8196C293.132 40.117 294.017 40.4501 295.071 40.8188C295.63 41.0283 296.154 41.2189 296.642 41.3907C297.123 41.5667 297.585 41.7489 298.012 41.9312C298.424 42.1056 298.827 42.3017 299.219 42.5188C299.593 42.7305 299.953 42.9688 300.293 43.2321C301.15 43.8712 301.805 44.7441 302.179 45.7459C302.549 46.7908 302.732 47.8928 302.719 49.0013C302.737 50.1129 302.496 51.2133 302.015 52.2159C301.56 53.1498 300.912 53.9767 300.114 54.6417C299.284 55.325 298.332 55.8443 297.308 56.172C296.195 56.5346 295.031 56.7139 293.861 56.703C291.49 56.703 289.492 55.9992 287.869 54.5914C287.46 54.2199 287.082 53.8164 286.737 53.3848C286.462 53.0368 286.212 52.6703 285.986 52.2881L286.269 52.1184C286.631 51.8953 287.045 51.7707 287.47 51.7571C287.765 51.7557 288.059 51.797 288.343 51.8796C288.625 51.9642 288.882 52.1188 289.088 52.329C289.524 52.7442 289.998 53.1166 290.505 53.4413C290.881 53.6768 291.283 53.8686 291.702 54.0132C292.054 54.1282 292.418 54.201 292.786 54.2301C293.134 54.2552 293.492 54.274 293.861 54.2866C294.633 54.3111 295.405 54.2244 296.152 54.029C296.896 53.847 297.599 53.5272 298.226 53.0863C298.844 52.6486 299.358 52.08 299.731 51.4209C300.135 50.6822 300.336 49.8493 300.312 49.0076C300.348 48.1462 300.193 47.2876 299.857 46.4938C299.569 45.8883 299.138 45.3628 298.6 44.9635C298.013 44.5452 297.368 44.215 296.686 43.9831C295.951 43.7212 295.158 43.4258 294.307 43.097C293.229 42.6665 292.246 42.2642 291.36 41.8997C290.545 41.5734 289.781 41.1344 289.088 40.5957C288.462 40.0995 287.96 39.4649 287.62 38.7417C287.24 37.8403 287.062 36.8663 287.099 35.8886C287.086 34.881 287.328 33.8864 287.803 32.9977C288.26 32.1482 288.876 31.395 289.619 30.7792C290.368 30.1619 291.219 29.6793 292.133 29.3526C293.032 29.0246 293.982 28.8545 294.939 28.8498C295.678 28.8405 296.413 28.9465 297.12 29.1641C297.744 29.3597 298.343 29.6275 298.904 29.9622C299.43 30.2746 299.922 30.6411 300.372 31.0557C300.808 31.4621 301.21 31.8622 301.578 32.2561L300.988 32.674C300.828 32.7908 300.652 32.8839 300.466 32.9505C300.235 33.0249 299.993 33.06 299.75 33.0542C299.317 33.0695 298.89 32.957 298.521 32.7306Z" fill="#070707"/>
<path d="M61.0461 46.1427C62.9827 31.0046 52.2807 17.163 37.1427 15.2264C22.0047 13.2899 8.16292 23.9918 6.22638 39.1298C4.28984 54.2679 14.9918 68.1096 30.1299 70.0461C45.2679 71.9827 59.1096 61.2807 61.0461 46.1427Z" fill="#070707"/>
<path d="M34.8961 42.7858V45.4348H40.6968V49.8654H34.937V49.8497C34.783 49.8497 34.6228 49.8654 34.4688 49.8654C33.6131 49.8677 32.7657 49.6978 31.977 49.3658C30.8308 48.881 29.8488 48.0758 29.1489 47.0468C28.2894 45.7731 27.9169 44.2327 28.0997 42.707C28.2824 41.1813 29.0082 39.7724 30.1442 38.7378C31.2803 37.7032 32.7507 37.112 34.2868 37.0724C35.8228 37.0327 37.3218 37.5472 38.5098 38.5218H49.822C49.6774 38.0693 49.5078 37.6231 49.3287 37.1894C48.1941 34.5016 46.3519 32.1717 43.9984 30.4477C41.6448 28.7237 38.8679 27.67 35.963 27.3988C33.0582 27.1276 30.1342 27.6491 27.5022 28.9077C24.8702 30.1663 22.6286 32.115 21.0162 34.5464C19.4037 36.9777 18.4805 39.8008 18.345 42.7151C18.2095 45.6294 18.8667 48.5259 20.2466 51.0964C21.6265 53.6669 23.6775 55.8152 26.1813 57.3126C28.6852 58.8101 31.5482 59.6006 34.4657 59.6002H50.4913V42.7796L34.8961 42.7858ZM40.6968 56.9261H35.3549C35.1538 56.9261 34.9464 56.9481 34.7265 56.9512H34.2614C31.9454 56.9188 29.6768 56.2903 27.6742 55.1263C25.6717 53.9623 24.0028 52.3021 22.8284 50.3057C21.654 48.3092 21.0136 46.0439 20.9691 43.7281C20.9246 41.4123 21.4774 39.1241 22.5743 37.084C23.6711 35.0439 25.275 33.3208 27.2313 32.0807C29.1877 30.8406 31.4304 30.1254 33.7435 30.004C36.0566 29.8826 38.3619 30.3591 40.4373 31.3876C42.5127 32.4161 44.2881 33.9619 45.5925 35.876H39.377C38.1949 35.1133 36.8513 34.6366 35.4528 34.484C34.0544 34.3313 32.6395 34.5067 31.3207 34.9964C30.0019 35.4861 28.8154 36.2764 27.8554 37.3048C26.8954 38.3331 26.1884 39.5711 25.7905 40.9204C25.3925 42.2698 25.3147 43.6933 25.563 45.078C25.8114 46.4627 26.3792 47.7704 27.2213 48.8973C28.0633 50.0243 29.1565 50.9394 30.4141 51.5699C31.6716 52.2005 33.0589 52.5293 34.4657 52.5301H40.6968V56.9261ZM47.8675 56.9512H43.3489L43.374 56.9355H43.3489V52.5363H47.8675V56.9512ZM47.8675 49.8717H43.3489V45.4411H47.8675V49.8717Z" fill="#262626"/>
<path d="M34.1137 41.95V44.5989H39.9175V49.0296H34.1514V49.0138C33.9975 49.0138 33.8372 49.0296 33.6864 49.0296C32.6373 49.0314 31.604 48.7743 30.6781 48.281C29.7523 47.7876 28.9626 47.0733 28.3791 46.2015C27.7862 45.318 27.4218 44.3011 27.3187 43.2421C27.2156 42.1831 27.377 41.1151 27.7883 40.1338C28.2724 38.9862 29.0791 38.0038 30.1105 37.3057C30.9926 36.711 32.0091 36.3455 33.068 36.2424C34.1268 36.1392 35.1947 36.3017 36.1751 36.715C36.741 36.9528 37.2701 37.2702 37.7462 37.6576H49.0584C48.9107 37.2051 48.7442 36.7589 48.5651 36.3253C47.4264 33.6422 45.5823 31.3176 43.2285 29.5985C40.8747 27.8794 38.0993 26.8299 35.1969 26.5616C32.2946 26.2933 29.3738 26.8162 26.7447 28.0747C24.1157 29.3332 21.8767 31.2803 20.2655 33.7092C18.6542 36.1381 17.731 38.9581 17.5939 41.8696C17.4568 44.7811 18.1108 47.6753 19.4866 50.2449C20.8624 52.8145 22.9085 54.9635 25.4076 56.4635C27.9066 57.9635 30.7654 58.7586 33.6801 58.7643H49.7057V41.9343L34.1137 41.95ZM39.9175 56.0903H34.5756C34.3714 56.0903 34.1671 56.1123 33.9472 56.1154H33.4916C31.1747 56.0862 28.9044 55.4605 26.8997 54.2986C24.8951 53.1366 23.2237 51.4777 22.0467 49.4818C20.8698 47.4859 20.227 45.2204 20.1805 42.9038C20.1339 40.5872 20.6852 38.2977 21.781 36.2561C22.8768 34.2146 24.4802 32.4899 26.4366 31.2483C28.393 30.0068 30.6363 29.2904 32.9501 29.1682C35.264 29.046 37.5702 29.5221 39.6465 30.5506C41.7228 31.5791 43.499 33.1253 44.8038 35.0401H38.5946C37.4133 34.2715 36.0688 33.7894 34.6683 33.6323C33.2677 33.4751 31.8498 33.6473 30.5275 34.135C29.2052 34.6227 28.0151 35.4124 27.0521 36.4414C26.089 37.4703 25.3795 38.71 24.9802 40.0616C24.5809 41.4132 24.5028 42.8394 24.7521 44.2265C25.0014 45.6136 25.5713 46.9233 26.4162 48.0513C27.2612 49.1793 28.3579 50.0943 29.619 50.7235C30.8801 51.3527 32.2707 51.6786 33.6801 51.6754H39.9112L39.9175 56.0903ZM47.0882 56.1154H42.5696L42.5916 56.0997H42.5696V51.6754H47.0882V56.1154ZM47.0882 49.0358H42.5696V44.6052H47.0882V49.0358Z" fill="white"/>
<path d="M39.9175 51.6785H42.5696V52.9386H39.9175V51.6785Z" fill="#999999"/>
<path d="M37.7714 44.5989H39.9176V45.859H42.5665V44.5989H44.5116V44.5958H37.7714V44.5989Z" fill="#999999"/>
</svg>
