<svg width="308" height="87" viewBox="0 0 308 87" fill="none" xmlns="http://www.w3.org/2000/svg">
<path d="M280.142 51.6326L303.854 23.0368H292.214L270.954 48.6704V48.5062L261.32 60.1866L259.224 62.728C259.164 62.8292 259.106 62.9332 259.044 63.0344L255.432 67.389C254.762 67.9972 254.054 68.5622 253.308 69.074C250.14 71.2446 246.352 72.5062 242.234 72.5074V72.6562C239.494 72.6514 236.906 72.0904 234.546 71.0778C230.996 69.5528 227.962 66.9964 225.824 63.7838C223.688 60.566 222.444 56.7206 222.442 52.5384C222.442 49.7466 222.996 47.1122 223.996 44.7088C225.498 41.1022 228.016 38.022 231.182 35.851C234.35 33.6816 238.138 32.4206 242.258 32.4188C246.612 32.4206 250.602 33.83 253.874 36.2338L259.098 28.9138C254.376 25.4328 248.534 23.375 242.258 23.3762C238.304 23.3762 234.516 24.1928 231.076 25.6704C225.916 27.8864 221.54 31.5788 218.442 36.23C215.346 40.8784 213.534 46.5142 213.536 52.5384C213.536 52.6378 213.544 52.739 213.544 52.8396H213.388C213.388 55.6284 212.834 58.2646 211.832 60.668C210.33 64.272 207.814 67.3542 204.65 69.524C201.481 71.6934 197.692 72.9554 193.574 72.9578C190.824 72.9562 188.229 72.3946 185.861 71.3772C182.311 69.8546 179.277 67.2974 177.137 64.0838C176.137 62.5776 175.334 60.9302 174.762 59.1772C174.393 58.994 173.995 58.788 173.574 58.5598C171.544 57.4562 169 55.8458 166.914 53.7322C166.04 52.8444 165.257 51.9674 164.554 51.1188C164.6 51.6846 164.627 52.258 164.627 52.8396C164.627 55.6284 164.074 58.2646 163.072 60.668C161.572 64.272 159.053 67.3542 155.888 69.524C152.72 71.6934 148.93 72.9554 144.813 72.9578C142.063 72.9562 139.468 72.3946 137.1 71.3772C133.549 69.8546 130.515 67.2974 128.378 64.0838C126.24 60.8672 124.997 57.0194 124.996 52.8396C124.996 50.0492 125.551 47.4128 126.552 45.0084C128.052 41.404 130.571 38.3238 133.735 36.1528C136.904 33.9834 140.692 32.7206 144.813 32.7198C147.56 32.7198 150.155 33.2834 152.524 34.2992C156.075 35.8232 159.108 38.3796 161.246 41.5926C161.294 41.6658 161.34 41.7396 161.387 41.8138L161.4 41.8086L161.401 41.815L161.414 41.8482C161.415 41.8532 161.42 41.8618 161.422 41.869C161.504 41.9972 161.581 42.131 161.66 42.26C161.86 42.7162 162.258 43.581 162.887 44.7092C162.951 44.822 163.018 44.9408 163.086 45.0598C163.138 45.185 163.195 45.3072 163.244 45.4332C163.828 46.3998 164.572 47.5108 165.491 48.702C165.541 48.7676 165.588 48.8314 165.639 48.8962C166.442 49.9456 167.387 51.0402 168.469 52.1132C168.476 52.1212 168.482 52.1274 168.488 52.1334C168.497 52.1424 168.505 52.1492 168.513 52.1582C168.685 52.3284 168.858 52.4954 169.038 52.663C169.108 52.7274 169.177 52.7922 169.247 52.856C170.381 53.9014 171.652 54.9122 173.093 55.8204C174.712 56.8418 176.536 57.7288 178.556 58.3666C180.577 59.0062 182.793 59.3936 185.161 59.4304H185.164C185.368 59.4338 185.568 59.436 185.767 59.436C189.583 59.4368 193.005 58.8312 196.01 57.7524C198.265 56.9448 200.279 55.875 202.046 54.6356C204.698 52.7732 206.79 50.5408 208.42 48.2532C210.05 45.961 211.224 43.612 212.08 41.444C212.734 39.7846 213.07 38.136 213.07 36.5574C213.07 35.649 212.96 34.772 212.754 33.9548C212.396 32.5238 211.756 31.3014 211.044 30.3396C209.968 28.8902 208.764 27.9872 207.828 27.4012C206.882 26.8182 206.178 26.5486 205.968 26.4716L205.952 26.5226C202.199 24.7016 197.993 23.6776 193.574 23.6784C189.619 23.6776 185.83 24.493 182.391 25.9712C179.025 27.418 175.996 29.4934 173.433 32.0524V4.04834H164.529V28.4412C165.073 28.97 165.639 29.5436 166.225 30.1698C168.478 32.574 169.937 34.8972 171.218 37.034C172.501 39.1768 173.609 41.1186 175.166 42.891C175.402 43.1624 175.653 43.4294 175.915 43.6946C177.445 40.656 179.722 38.0554 182.497 36.1528C185.663 33.9834 189.453 32.7206 193.574 32.7198C197.186 32.7206 200.54 33.691 203.453 35.3946L203.488 35.332C203.679 35.4832 203.853 35.6582 203.95 35.8086C204.022 35.9148 204.068 36.0066 204.102 36.1124C204.134 36.218 204.164 36.3414 204.164 36.5574C204.164 36.8472 204.108 37.3276 203.811 38.0856C203.251 39.5056 202.512 41.0036 201.565 42.426C200.855 43.4928 200.029 44.5186 199.076 45.453C197.641 46.8554 195.928 48.0596 193.779 48.9426C191.63 49.8238 189.028 50.3926 185.767 50.3934C185.614 50.3934 185.462 50.3926 185.31 50.3904H185.307C183.96 50.3672 182.747 50.1752 181.621 49.8584C179.656 49.3038 177.949 48.36 176.449 47.2002C175.925 46.7954 175.43 46.3608 174.962 45.9116C174.962 45.9094 174.962 45.9038 174.965 45.8996C174.74 45.6892 174.525 45.4762 174.315 45.264C173.083 43.975 172.077 42.6114 171.339 41.437C170.776 40.5432 170.196 39.7984 169.934 39.2686C169.804 39.0024 169.543 38.5896 169.543 38.5896C168.211 36.359 166.826 34.0922 164.613 31.728C164.584 31.6966 164.555 31.6708 164.529 31.6392V31.6408C163.392 30.5514 162.173 29.5512 160.873 28.6598C156.294 25.5174 150.745 23.676 144.813 23.6784C140.858 23.6776 137.07 24.493 133.63 25.9712C128.47 28.1886 124.094 31.8806 120.998 36.5312C117.902 41.1794 116.088 46.8144 116.09 52.8396C116.088 56.8526 116.893 60.7002 118.349 64.1904C120.532 69.4302 124.168 73.8726 128.75 77.0162C133.328 80.1608 138.878 82.001 144.813 82C148.765 82.0004 152.555 81.1836 155.994 79.7052C161.154 77.4886 165.529 73.7972 168.627 69.1464C168.82 68.8528 169.01 68.5574 169.194 68.2562C171.334 71.7376 174.17 74.7234 177.509 77.0162C182.089 80.1608 187.638 82.001 193.574 82C197.525 82.0004 201.315 81.1836 204.754 79.7052C209.91 77.4886 214.29 73.7972 217.384 69.1464C217.6 68.8242 217.808 68.4966 218.008 68.1632C220.134 71.5546 222.92 74.4684 226.198 76.715C230.776 79.8586 236.324 81.6988 242.258 81.6982C246.208 81.6988 250.002 80.8826 253.438 79.4046C256.654 78.0244 259.562 76.0706 262.048 73.6694V81.8106H270.954V62.7092L274.296 58.682L292.58 81.8106H304L280.142 51.6326ZM270.954 4.04834H262.048V52.3982C262.048 53.7098 261.922 54.9858 261.684 56.2226L270.954 44.9852V4.04834Z" fill="#190B5A"/>
<path d="M55.028 24.79V48.486C55.028 59.5248 48.353 66.1922 38.234 66.1922C28.114 66.1922 21.01 59.5248 21.01 48.486V4H4V48.486C4 68.7066 17.348 81.2766 38.234 81.2766C59.011 81.2766 72.038 68.7066 72.038 48.486V4H71.74C62.769 6.92421 56.077 14.9946 55.028 24.79Z" fill="url(#paint0_linear)"/>
<path d="M86.6 4H86.308V80.5127H103.318V24.8055C103.157 16.3028 95.575 6.92609 86.6 4Z" fill="url(#paint1_linear)"/>
<path d="M55.028 24.79V48.486C55.028 48.5002 55.027 48.5144 55.027 48.5302C55.031 48.7658 55.044 48.9996 55.044 49.237C55.044 65.1956 43.206 78.3398 27.961 80.1308C31.134 80.8812 34.566 81.2766 38.234 81.2766C59.011 81.2766 72.038 68.7066 72.038 48.486V4H71.74C62.769 6.92421 56.077 14.9946 55.028 24.79Z" fill="url(#paint2_linear)"/>
<path d="M21.01 24.8284V4H4V4.00337C13.044 6.93284 19.82 15.0014 21.01 24.8284Z" fill="url(#paint3_linear)"/>
<path d="M86.308 57.839V80.5126H103.11C93.74 77.1556 86.907 68.348 86.308 57.839Z" fill="url(#paint4_linear)"/>
<defs>
<linearGradient id="paint0_linear" x1="62.212" y1="73.8074" x2="16.871" y2="-3.54438" gradientUnits="userSpaceOnUse">
<stop stop-color="#C5259A"/>
<stop offset="0.169697" stop-color="#55369B"/>
<stop offset="0.575758" stop-color="#4779C6"/>
<stop offset="1" stop-color="#70D0E4"/>
</linearGradient>
<linearGradient id="paint1_linear" x1="94.813" y1="4" x2="94.813" y2="80.5129" gradientUnits="userSpaceOnUse">
<stop stop-color="#7A2393"/>
<stop offset="0.472727" stop-color="#951E93"/>
<stop offset="1" stop-color="#EE197F"/>
</linearGradient>
<linearGradient id="paint2_linear" x1="50" y1="4" x2="50" y2="81.277" gradientUnits="userSpaceOnUse">
<stop stop-color="#7A2393"/>
<stop offset="0.472727" stop-color="#951E93"/>
<stop offset="0.890909" stop-color="#EE197F"/>
<stop offset="1" stop-color="#EE1A98"/>
</linearGradient>
<linearGradient id="paint3_linear" x1="10.429" y1="17.0928" x2="21.139" y2="3.68798" gradientUnits="userSpaceOnUse">
<stop stop-color="#423A9C"/>
<stop offset="0.327273" stop-color="#4779C6"/>
<stop offset="1" stop-color="#70D0E4"/>
</linearGradient>
<linearGradient id="paint4_linear" x1="95.349" y1="68.3916" x2="84.995" y2="80.6994" gradientUnits="userSpaceOnUse">
<stop stop-color="#3F2D92"/>
<stop offset="0.193939" stop-color="#951E93"/>
<stop offset="1" stop-color="#EE197F"/>
</linearGradient>
</defs>
</svg>
