<svg width="308" height="87" viewBox="0 0 308 87" fill="none" xmlns="http://www.w3.org/2000/svg">
<path d="M71.696 68.6556C72.171 68.8931 72.646 69.1306 73.596 69.3682C77.159 71.0309 80.485 71.981 84.523 71.981C97.587 71.981 108.513 61.0546 108.513 47.9905C108.513 34.9264 97.587 24 84.76 24C76.209 24 68.371 32.3135 63.145 37.5392L56.732 43.9525L45.805 33.0261C41.53 28.7506 36.779 24 28.466 24C14.926 24.2375 4 35.1639 4 48.228C4 61.2922 14.926 72.2185 27.753 72.2185C31.316 72.2185 35.354 71.5059 38.679 69.6057C41.767 67.7055 50.081 62.7173 54.831 57.9667L56.019 56.7791L61.957 62.4798C65.995 66.0428 69.083 67.4679 71.696 68.6556ZM67.895 45.3777C68.846 44.4276 69.796 43.4774 70.508 42.7649C74.309 38.9644 80.247 33.2637 84.523 33.2637C92.599 33.2637 99.724 40.8646 99.724 48.9406C99.724 57.0166 92.836 64.1425 84.523 64.1425C81.91 64.1425 77.634 62.7173 75.021 61.2922C68.133 57.2542 62.432 50.6033 62.432 50.6033L67.895 45.3777ZM48.893 51.5535C45.093 55.3539 37.729 60.1045 35.116 61.5297C32.741 62.7173 30.841 63.4299 28.228 63.4299C20.152 63.4299 13.026 56.5416 13.026 48.228C13.026 40.152 19.914 33.0261 28.228 33.0261C32.979 33.0261 35.116 35.1639 39.154 39.4394L50.318 50.3658L48.893 51.5535Z" fill="#756AF8"/>
<path d="M116.589 63.1924C116.114 62.7173 115.876 61.7672 115.876 60.8171V36.3515C115.876 35.4014 116.114 34.4513 116.827 33.9762C117.539 33.2637 118.252 33.0261 119.202 33.0261C120.152 33.0261 121.102 33.2637 121.577 33.9762C122.29 34.6888 122.527 35.4014 122.527 36.3515V58.4418H133.691C135.829 58.4418 136.779 59.3919 136.779 61.2922C136.779 63.1924 135.829 64.1425 133.691 64.1425H118.964C117.777 63.905 117.064 63.6675 116.589 63.1924Z" fill="#756AF8"/>
<path d="M140.342 37.7767C139.867 37.3016 139.629 36.8266 139.392 36.114C139.154 35.1639 139.392 34.2138 140.105 33.5012C140.58 32.7886 141.292 32.5511 142.242 32.3135C142.955 32.076 143.905 32.076 144.618 32.3135C146.28 32.7886 147.23 34.9264 146.755 36.3515C145.805 38.9644 142.242 39.4394 140.342 37.7767ZM140.58 63.4299C139.867 62.9549 139.629 62.0047 139.629 61.0546V45.1401C139.629 44.19 139.867 43.2399 140.58 42.7648C141.292 42.2898 142.005 42.0522 142.955 42.0522C143.905 42.0522 144.618 42.2898 145.33 42.7648C146.043 43.2399 146.28 43.9525 146.28 45.1401V61.0546C146.28 62.0047 146.043 62.9549 145.33 63.4299C144.143 64.1425 142.717 64.38 141.53 63.905C141.055 63.905 140.817 63.6674 140.58 63.4299Z" fill="#756AF8"/>
<path d="M170.508 44.4275C171.696 45.8527 172.409 48.228 172.409 51.3159V61.2921C172.409 62.2422 172.171 62.9548 171.458 63.6674C170.746 64.1425 170.033 64.38 169.083 64.38C168.133 64.38 167.183 64.1425 166.708 63.6674C166.233 63.1923 165.758 62.4797 165.758 61.2921V51.5534C165.758 50.1282 165.52 48.9405 165.045 48.4655C164.57 47.7529 163.62 47.5154 162.432 47.5154C161.007 47.5154 160.057 47.9904 159.107 48.9406C158.394 49.8907 157.919 51.0783 157.919 52.5035V61.7671C157.919 62.7173 157.682 63.4299 156.969 64.1424C156.494 64.6175 155.544 64.855 154.594 64.855C153.644 64.855 152.694 64.6175 152.219 64.1424C151.506 63.6674 151.268 62.9548 151.268 61.7671V45.8527C151.268 44.9025 151.506 44.19 152.219 43.7149C152.931 43.2398 153.644 43.0023 154.594 43.0023C155.544 43.0023 156.257 43.2398 156.732 43.7149C157.207 44.19 157.682 44.9025 157.682 45.8527V46.5653C157.682 46.3277 157.919 46.0902 157.919 46.0902C158.157 45.8527 158.157 45.8527 158.394 45.6151C158.632 45.3776 159.107 44.9025 159.344 44.665C161.007 43.4774 163.145 42.7648 165.045 42.7648C167.183 42.5272 169.321 42.7648 170.508 44.4275Z" fill="#756AF8"/>
<path d="M195.92 58.4417C196.16 58.6793 196.16 58.6793 196.16 58.9168C196.4 59.6294 196.4 60.5795 195.92 61.2921C195.45 62.2422 194.74 62.4797 194.02 62.9548C193.07 63.4298 192.12 63.6674 191.17 63.9049C189.75 64.1424 188.56 64.38 187.61 64.38C185.24 64.38 183.33 63.9049 181.43 62.9548C179.77 62.0047 178.35 60.817 177.397 59.1543C176.447 57.4916 175.971 55.5914 175.971 53.2161C175.971 51.0783 176.447 49.1781 177.397 47.5154C178.35 45.8527 179.53 44.4275 181.2 43.4774C182.86 42.5272 184.52 42.0522 186.66 42.0522C188.56 42.0522 190.22 42.5272 191.89 43.2398C193.31 44.19 194.5 45.3776 195.21 46.8028C195.92 48.4655 196.4 50.1282 196.4 52.266C196.4 52.9785 196.16 53.4536 195.92 53.6911C195.69 53.9287 195.21 54.1662 194.74 54.1662H182.62C182.86 55.8289 183.33 57.0165 184.29 57.9667C185.24 58.9168 186.42 59.1543 187.85 59.1543C188.8 59.1543 189.51 59.1543 190.22 58.9168C190.94 58.6793 191.65 58.4417 192.36 58.2042C193.07 57.9667 193.79 57.7291 194.5 57.7291C194.74 57.7291 195.21 57.7291 195.45 57.9667C195.69 57.9667 195.92 58.2042 195.92 58.4417ZM184.05 47.7529C183.33 48.4655 182.86 49.6531 182.62 51.3158H190.94C190.94 49.8907 190.46 48.703 189.75 47.7529C189.04 47.0403 188.09 46.5652 186.9 46.5652C185.71 46.5652 184.76 47.0403 184.05 47.7529Z" fill="#756AF8"/>
<path d="M202.1 63.4299C201.39 62.9549 201.15 62.0048 201.15 61.0546V36.3515C201.15 35.4014 201.39 34.4513 202.1 33.9762C202.81 33.2637 203.52 33.0261 204.48 33.0261C205.43 33.0261 206.38 33.2637 206.85 33.9762C207.56 34.6888 207.8 35.4014 207.8 36.3515V60.8171C207.8 61.5297 207.56 62.4798 207.09 63.1924C206.14 63.905 204.71 64.6176 203.29 64.1425C202.81 63.905 202.34 63.6675 202.1 63.4299Z" fill="#756AF8"/>
<path d="M217.54 62.9548C215.88 62.0047 214.69 60.8171 213.74 59.1544C212.79 57.4917 212.31 55.5914 212.31 53.2161C212.31 51.0784 212.79 48.9406 213.74 47.2779C214.69 45.6152 216.11 44.19 217.78 43.2399C219.44 42.2898 221.58 41.8147 223.72 41.8147C224.9 41.8147 226.09 42.0522 227.28 42.2898C228.23 42.5273 229.42 43.0023 230.37 43.7149C231.79 44.6651 232.27 46.5653 231.32 47.9905C231.08 48.228 231.08 48.4655 230.6 48.7031C230.13 48.9406 229.89 48.7031 229.42 48.7031C228.47 48.4655 227.52 48.228 226.57 47.7529C225.85 47.5154 225.14 47.0404 224.19 47.0404C222.53 47.0404 221.34 47.7529 220.15 48.7031C219.2 49.6532 218.96 51.3159 218.96 53.2161C218.96 55.1164 219.44 56.7791 220.15 57.7292C221.1 58.6793 222.29 59.3919 223.95 59.3919C224.9 59.3919 225.38 59.1544 226.33 58.9168C227.04 58.6793 227.52 58.4418 228.23 58.2042C229.42 57.7292 230.37 57.7292 231.08 58.4418C231.55 58.9168 231.55 59.6294 231.55 60.342C231.55 61.5297 231.08 62.2423 230.13 62.7173C229.18 63.1924 228.23 63.6674 226.8 64.1425C225.38 64.6175 224.19 64.6176 223 64.6176C221.1 64.38 219.2 63.905 217.54 62.9548Z" fill="#756AF8"/>
<path d="M239.39 62.9548C237.73 62.0047 236.3 60.817 235.35 59.1543C234.4 57.4916 233.93 55.5914 233.93 53.2161C233.93 50.8408 234.4 48.9405 235.35 47.2778C236.3 45.6151 237.49 44.4275 239.39 43.4774C241.05 42.5272 243.19 42.0522 245.33 42.0522C247.47 42.0522 249.61 42.5272 251.27 43.4774C252.93 44.4275 254.36 45.6151 255.31 47.2778C256.26 48.9405 256.73 50.8408 256.73 53.2161C256.73 55.5914 256.26 57.4916 255.31 59.1543C254.36 60.817 253.17 62.0047 251.27 62.9548C249.61 63.9049 247.47 64.38 245.33 64.38C243.19 64.38 241.05 63.9049 239.39 62.9548ZM250.08 53.2161C250.08 51.0783 249.61 49.6531 248.89 48.703C248.18 47.7529 246.99 47.2778 245.33 47.2778C242.24 47.2778 240.58 49.4156 240.58 53.4536C240.58 57.4916 242.24 59.6294 245.33 59.6294C248.66 59.3919 250.08 57.2541 250.08 53.2161Z" fill="#756AF8"/>
<path d="M279.77 44.4276C280.96 45.8527 281.67 48.228 281.67 51.3159V61.2922C281.67 62.2423 281.43 62.9549 280.72 63.6675C280.01 64.1425 279.3 64.38 278.35 64.38C277.4 64.38 276.45 64.1425 275.97 63.6675C275.5 63.1924 275.02 62.4798 275.02 61.2922V51.5534C275.02 50.1283 274.78 48.9406 274.31 48.4655C273.83 47.753 272.88 47.5154 271.7 47.5154C270.27 47.5154 269.32 47.9905 268.37 48.9406C267.66 49.8907 267.18 51.0784 267.18 52.5036V61.7672C267.18 62.7173 266.95 63.4299 266.23 64.1425C265.76 64.6176 264.81 64.8551 263.86 64.8551C262.91 64.8551 261.96 64.6176 261.48 64.1425C260.77 63.6674 260.53 62.9549 260.53 61.7672V45.8527C260.53 44.9026 260.77 44.19 261.48 43.715C262.19 43.2399 262.91 43.0024 263.86 43.0024C264.81 43.0024 265.52 43.2399 266 43.715C266.47 44.19 266.95 44.9026 266.95 45.8527V46.5653C266.95 46.0903 267.66 45.3777 268.13 45.1401C268.61 44.6651 269.08 44.4275 269.56 44.19C272.41 42.5273 277.4 41.5772 279.77 44.4276Z" fill="#756AF8"/>
<path d="M290.22 63.9049C289.99 63.9049 289.51 63.6674 289.27 63.6674C288.32 63.4299 287.37 62.9548 286.66 62.4798C286.19 62.2422 285.95 61.7672 285.71 61.5296C285.47 61.0546 285.47 60.5795 285.47 60.1045C285.47 59.3919 285.71 58.9168 285.95 58.4418C286.42 57.9667 286.9 57.7292 287.37 57.7292C287.85 57.7292 288.09 57.7292 288.56 57.9667C289.04 58.2042 289.27 58.2042 289.75 58.4418C290.46 58.9168 291.41 59.1543 292.12 59.3919C292.84 59.6294 293.79 59.6294 294.97 59.6294C295.92 59.6294 296.87 59.3919 297.35 59.1543C297.82 58.9168 298.3 58.4417 298.3 57.9667C298.3 57.4916 298.06 57.2541 297.82 57.0166C297.59 56.779 297.11 56.5415 296.4 56.304C295.69 56.0665 294.74 55.8289 293.31 55.5914C290.7 55.1163 288.8 54.4037 287.61 53.4536C286.42 52.5035 285.95 51.0783 285.95 49.4156C285.95 46.8028 287.61 44.665 289.99 43.7149C291.41 43.0023 292.84 42.7648 294.26 42.7648C296.16 42.5273 298.06 42.7648 299.72 43.4774C301.39 43.9524 303.29 45.1401 303.29 47.0403C303.29 47.7529 303.05 48.228 302.81 48.703C302.34 49.1781 301.86 49.4156 301.39 49.4156C299.96 49.4156 298.77 48.4655 297.35 47.9904C295.92 47.5154 294.26 47.5154 292.84 47.9904C292.36 48.228 291.89 48.4655 291.89 48.9406C291.65 49.4156 291.89 49.8907 292.36 50.1282C292.84 50.6033 293.55 50.6033 294.26 50.8408C294.97 51.0783 295.69 51.0783 296.4 51.3159C298.3 51.7909 299.96 52.266 300.91 52.741C302.1 53.2161 302.81 53.9287 303.29 54.8788C303.76 55.5914 304 56.779 304 57.9667C304 60.1045 303.05 61.7672 301.39 62.9548C300.2 63.9049 298.54 64.38 296.87 64.6175C294.74 64.8551 292.36 64.38 290.22 63.9049Z" fill="#756AF8"/>
</svg>
