<svg width="308" height="87" viewBox="0 0 308 87" fill="none" xmlns="http://www.w3.org/2000/svg">
<path d="M78 56.9893V38.6559C78 36.8884 77.29 35.1939 76.05 33.9441C74.8 32.6943 73.1 31.9912 71.33 31.9893H53C53 26.222 55 20.6333 58.65 16.17C62.31 11.7066 67.39 8.64295 73.04 7.49788C78.69 6.35281 84.57 7.19674 89.67 9.88673C94.77 12.5767 98.79 16.9474 101.04 22.2584C102.64 26.0597 103.29 30.2002 102.9 34.31C102.52 38.4198 101.13 42.371 98.85 45.8107C96.56 49.2504 93.47 52.0716 89.83 54.0222C86.19 55.9728 82.13 56.9922 78 56.9893Z" fill="url(#paint0_linear)"/>
<path d="M71.33 31.9893H34.67C30.98 31.9893 28 34.974 28 38.6559V75.3226C28 79.0045 30.98 81.9893 34.67 81.9893H71.33C75.02 81.9893 78 79.0045 78 75.3226V38.6559C78 34.974 75.02 31.9893 71.33 31.9893Z" fill="url(#paint1_linear)"/>
<path d="M53 81.9893C53 75.3588 55.6299 69 60.3199 64.3116C65.0099 59.6232 71.37 56.9893 78 56.9893V75.3226C78 77.0907 77.3 78.7864 76.05 80.0366C74.8 81.2869 73.1 81.9893 71.33 81.9893H53Z" fill="url(#paint2_linear)"/>
<path d="M28 56.9893V38.6559C28 36.8878 28.7 35.1921 29.95 33.9419C31.2 32.6916 32.9 31.9893 34.67 31.9893H53C53 38.6197 50.3701 44.9785 45.6801 49.6669C40.9901 54.3553 34.63 56.9893 28 56.9893Z" fill="url(#paint3_linear)"/>
<path d="M134.97 68H143.66L131.46 34.304H121.96L109.77 68H118.36L120.38 62.048H132.95L134.97 68ZM130.84 55.712H122.54L126.66 43.376L130.84 55.712ZM159.7 57.968L153.51 41.216H144.34L155.24 67.088L149.09 80.72H157.93L174.73 41.216H165.85L159.7 57.968ZM185.9 55.568C185.9 50.96 188.16 49.616 192.05 49.616H194.3V40.928C190.7 40.928 187.77 42.848 185.9 45.68V41.216H177.69V68H185.9V55.568ZM224.43 54.608C224.43 46.112 218.39 40.832 210.51 40.832C202.69 40.832 196.59 46.112 196.59 54.608C196.59 63.104 202.55 68.384 210.42 68.384C218.29 68.384 224.43 63.104 224.43 54.608ZM204.95 54.608C204.95 50.048 207.54 47.936 210.51 47.936C213.39 47.936 216.08 50.048 216.08 54.608C216.08 59.12 213.35 61.28 210.42 61.28C207.44 61.28 204.95 59.12 204.95 54.608ZM242.21 55.664C242.21 64.352 247.87 68.336 254.79 68.336C261.7 68.336 267.41 64.352 267.41 55.664V34.544H263.04V55.712C263.04 61.856 259.78 64.496 254.83 64.496C249.89 64.496 246.58 61.856 246.58 55.712V34.544H242.21V55.664ZM274.7 68H279.06V34.544H274.7V68Z" fill="black"/>
<defs>
<linearGradient id="paint0_linear" x1="78.01" y1="7" x2="78.01" y2="56.9893" gradientUnits="userSpaceOnUse">
<stop stop-color="#2BDBDC"/>
<stop offset="1" stop-color="#0067F4"/>
</linearGradient>
<linearGradient id="paint1_linear" x1="53" y1="31.9893" x2="53" y2="81.9893" gradientUnits="userSpaceOnUse">
<stop stop-color="#2BDBDC"/>
<stop offset="1" stop-color="#0067F4"/>
</linearGradient>
<linearGradient id="paint2_linear" x1="65.5" y1="56.9893" x2="65.5" y2="81.9893" gradientUnits="userSpaceOnUse">
<stop stop-color="#2BDBDC"/>
<stop offset="1" stop-color="#0067F4"/>
</linearGradient>
<linearGradient id="paint3_linear" x1="40.5" y1="31.9893" x2="40.5" y2="56.9893" gradientUnits="userSpaceOnUse">
<stop stop-color="#2BDBDC"/>
<stop offset="1" stop-color="#0067F4"/>
</linearGradient>
</defs>
</svg>
